<svg width="12" height="12" viewBox="0 0 12 12" fill="none" xmlns="http://www.w3.org/2000/svg">
<mask id="mask0_1422_357" style="mask-type:alpha" maskUnits="userSpaceOnUse" x="0" y="0" width="12" height="13">
<path d="M8.11133 0.000488281C8.47933 0.000488281 8.778 0.298488 8.778 0.667155C8.778 1.03516 8.47933 1.33382 8.11133 1.33382H1.73333C1.51267 1.33382 1.33333 1.51316 1.33333 1.73382V10.2665C1.33333 10.4872 1.51267 10.6672 1.73333 10.6672H10.2667C10.4873 10.6672 10.6667 10.4872 10.6667 10.2665V6.55582C10.6667 6.18782 10.9653 5.88916 11.3333 5.88916C11.7013 5.88916 12 6.18782 12 6.55582V10.2665C12 11.2225 11.222 12.0005 10.2667 12.0005H1.73333C0.778 12.0005 0 11.2225 0 10.2665V1.73382C0 0.777822 0.778 0.000488281 1.73333 0.000488281H8.11133ZM10.1877 2.20316C10.4431 1.93916 10.8651 1.93115 11.1304 2.18782C11.3951 2.44382 11.4017 2.86582 11.1457 3.13049L6.62773 7.79716C6.5024 7.92716 6.32973 8.00049 6.14907 8.00049C5.96507 7.99982 5.79173 7.92516 5.6664 7.79382L4.1844 6.24049C3.92973 5.97382 3.9404 5.55182 4.2064 5.29782C4.47307 5.04316 4.8944 5.05382 5.14907 5.31982L6.1524 6.37182L10.1877 2.20316Z" fill="white"/>
</mask>
<g mask="url(#mask0_1422_357)">
<path d="M8.11133 0.000488281C8.47933 0.000488281 8.778 0.298488 8.778 0.667155C8.778 1.03516 8.47933 1.33382 8.11133 1.33382H1.73333C1.51267 1.33382 1.33333 1.51316 1.33333 1.73382V10.2665C1.33333 10.4872 1.51267 10.6672 1.73333 10.6672H10.2667C10.4873 10.6672 10.6667 10.4872 10.6667 10.2665V6.55582C10.6667 6.18782 10.9653 5.88916 11.3333 5.88916C11.7013 5.88916 12 6.18782 12 6.55582V10.2665C12 11.2225 11.222 12.0005 10.2667 12.0005H1.73333C0.778 12.0005 0 11.2225 0 10.2665V1.73382C0 0.777822 0.778 0.000488281 1.73333 0.000488281H8.11133ZM10.1877 2.20316C10.4431 1.93916 10.8651 1.93115 11.1304 2.18782C11.3951 2.44382 11.4017 2.86582 11.1457 3.13049L6.62773 7.79716C6.5024 7.92716 6.32973 8.00049 6.14907 8.00049C5.96507 7.99982 5.79173 7.92516 5.6664 7.79382L4.1844 6.24049C3.92973 5.97382 3.9404 5.55182 4.2064 5.29782C4.47307 5.04316 4.8944 5.05382 5.14907 5.31982L6.1524 6.37182L10.1877 2.20316Z" fill="#B897E6"/>
</g>
</svg>
