<?xml version="1.0" standalone="no"?>
<!DOCTYPE svg PUBLIC "-//W3C//DTD SVG 1.1//EN" "http://www.w3.org/Graphics/SVG/1.1/DTD/svg11.dtd" >
<svg xmlns="http://www.w3.org/2000/svg">
<metadata>Generated by IcoMoon</metadata>
<defs>
<font id="icomoon" horiz-adv-x="1024">
<font-face units-per-em="1024" ascent="960" descent="-64" />
<missing-glyph horiz-adv-x="1024" />
<glyph unicode="&#x20;" horiz-adv-x="512" d="" />
<glyph unicode="&#xe900;" glyph-name="up-arrow" d="M511.922 960c-10.459-0.408-22.551-4.714-30.174-11.888l-248.696-234.065c-14.255-15.857-20.133-46.276-3.653-64.001 16.235-17.459 47.705-16.939 64.001 0.449l174.635 164.573v-776.684c0-24.232 19.653-43.886 43.889-43.886s43.889 19.653 43.889 43.886v776.684l174.635-164.573c15-14.98 47.593-17.745 64.001-0.449 16.418 17.286 11.173 48.787-3.663 64.001l-248.696 234.065c-8.511 8.010-18.501 11.908-30.174 11.888h0.007z" />
<glyph unicode="&#xe901;" glyph-name="tick" d="M1000.954 757.735l-614.772-688.687c-14.558-17.063-34.706-26.71-55.759-26.71-21.062 0-41.212 9.646-55.768 26.71l-251.616 280.32c-19.916 22.411-27.66 55.031-20.312 85.581 7.356 30.542 28.686 54.373 55.958 62.504 27.272 8.14 56.355-0.656 76.27-23.069l195.663-218.894 558.429 627.26c19.916 22.412 48.997 31.208 76.27 23.068 27.272-8.131 48.601-31.962 55.958-62.503 7.345-30.551-0.396-63.171-20.312-85.581l-0.007 0.002z" />
<glyph unicode="&#xe902;" glyph-name="search" d="M686.080 570.871v0c0 164.006-132.952 296.96-296.958 296.96s-296.957-132.951-296.957-296.96c0-164.007 132.95-296.959 296.957-296.959 164.005 0 296.958 132.952 296.958 296.959zM625.689 261.902c-65.552-50.27-147.575-80.142-236.572-80.142-214.896 0-389.116 174.215-389.116 389.121 0 214.897 174.212 389.119 389.116 389.119 214.896 0 389.115-174.214 389.115-389.119 0-88.991-29.872-171.017-80.142-236.578l310.915-310.895c19.993-19.993 19.993-52.412 0-72.413-19.997-19.993-52.421-19.993-72.409 0l-310.907 310.907z" />
<glyph unicode="&#xe903;" glyph-name="rupee" d="M779.677 779.663h-528.673c-23.544 0-42.804 19.26-42.804 42.804s19.26 42.804 42.804 42.804h528.673c23.544 0 42.803-19.26 42.803-42.804s-19.267-42.804-42.803-42.804zM779.677 565.626h-528.673c-23.544 0-42.804 19.26-42.804 42.804s19.26 42.803 42.804 42.803h528.673c23.544 0 42.803-19.259 42.803-42.803s-19.267-42.804-42.803-42.804zM406.179 386.905h-155.175c-23.544 0-42.804 19.259-42.804 42.803 0 23.545 19.26 42.804 42.804 42.804h155.175c84.541 0 154.109 68.492 154.109 154.109s-68.492 154.109-154.109 154.109h-155.175c-23.544 0-42.804 19.259-42.804 42.803s19.26 42.804 42.804 42.804h155.175c131.631 0 239.722-107.019 239.722-239.722 0-132.692-107.019-239.703-239.722-239.703v-0.007zM634.073 17.691c-10.705 0-21.403 4.277-29.965 11.772l-383.128 369.214c-17.125 16.050-17.125 43.88-1.068 61.005 16.050 17.125 43.88 17.125 61.004 1.068l383.128-368.144c17.124-16.050 17.124-43.88 1.067-61.005-9.637-8.563-20.343-13.915-31.038-13.915v0.005z" />
<glyph unicode="&#xe904;" glyph-name="Info-Icon" d="M512 959.983c-135.796 0-266.023-53.942-362.040-149.96-96.018-96.029-149.96-226.259-149.96-362.040s53.942-266.023 149.96-362.044c96.028-96.017 226.259-149.956 362.040-149.956s266.023 53.939 362.044 149.956c96.017 96.032 149.956 226.262 149.956 362.044 0 89.88-23.663 178.174-68.599 256.015-44.937 77.837-109.566 142.47-187.403 187.406s-166.135 68.597-256.015 68.597l0.017-0.017zM512 63.949v0.017c-101.846 0-199.526 40.457-271.537 112.468s-112.469 169.694-112.469 271.537c0 101.844 40.458 199.527 112.469 271.537s169.694 112.47 271.537 112.47c101.844 0 199.526-40.459 271.537-112.47 72.015-72.010 112.471-169.694 112.471-271.537s-40.457-199.526-112.471-271.537c-72.011-72.011-169.694-112.468-271.537-112.468v-0.017zM511.998 463.95c-16.976 0-33.25-6.752-45.259-18.75-11.998-11.998-18.739-28.282-18.739-45.258v-143.999c0-22.869 12.199-43.996 31.998-55.425 19.8-11.441 44.198-11.441 63.997 0 19.8 11.429 31.998 32.558 31.998 55.425v143.999c0 16.975-6.741 33.26-18.74 45.258-12.009 11.998-28.282 18.75-45.258 18.75h0.003zM575.993 623.954c0-35.348-28.65-64.009-63.997-64.009s-63.997 28.661-63.997 64.009c0 35.347 28.65 63.996 63.997 63.996s63.997-28.649 63.997-63.996z" />
<glyph unicode="&#xe905;" glyph-name="down-arrow" d="M512.078-5.5c10.459 0.41 22.551 4.718 30.174 11.886l248.696 234.067c14.255 15.857 20.133 46.277 3.653 64.001-16.235 17.459-47.705 16.939-64.001-0.449l-174.635-164.571v776.679c0 24.235-19.653 43.889-43.889 43.889s-43.889-19.653-43.889-43.889v-776.679l-174.635 164.571c-15 14.98-47.593 17.745-64.001 0.449-16.419-17.286-11.173-48.786 3.663-64.001l248.696-234.067c8.511-8.009 18.501-11.908 30.174-11.886h-0.007z" />
<glyph unicode="&#xe906;" glyph-name="cancel" d="M303.305 291.021l156.979 156.979-156.979 156.979c-14.336 14.335-14.336 37.478 0 51.714s37.478 14.335 51.713 0l156.979-156.979 156.979 156.979c14.338 14.335 37.48 14.335 51.714 0s14.336-37.478 0-51.714l-156.979-156.979 156.979-156.979c14.336-14.336 14.336-37.478 0-51.712-7.175-7.175-16.486-10.752-25.907-10.752-9.318 0-18.736 3.584-25.907 10.752l-156.879 156.977-156.979-156.977c-7.171-7.175-16.486-10.752-25.907-10.752-9.321 0-18.735 3.584-25.907 10.752-14.236 14.234-14.235 37.376 0.101 51.712zM0 448c0 282.313 229.687 512 512 512 282.31 0 512-229.687 512-512 0-282.31-229.69-512-512-512-282.313 0-512 229.69-512 512zM73.114 448c0-241.978 196.809-438.893 438.894-438.893 242.087 0 438.893 196.915 438.893 438.893 0 241.975-196.915 438.894-438.893 438.894-241.975 0-438.894-196.919-438.894-438.894z" />
<glyph unicode="&#xe907;" glyph-name="checkbox" d="M170.667 846.222c-31.346 0-56.889-25.543-56.889-56.889v-682.667c0-31.346 25.543-56.889 56.889-56.889h682.667c31.346 0 56.889 25.543 56.889 56.889v682.667c0 31.346-25.543 56.889-56.889 56.889h-682.667zM853.333-64h-682.667c-94.094 0-170.667 76.572-170.667 170.667v682.667c0 94.094 76.572 170.667 170.667 170.667h682.667c94.094 0 170.667-76.572 170.667-170.667v-682.667c0-94.094-76.572-170.667-170.667-170.667z" />
<glyph unicode="&#xe908;" glyph-name="checkbox-checked" d="M692.167 959.943c31.403 0 56.889-25.429 56.889-56.889 0-31.403-25.486-56.888-56.889-56.888h-544.256c-18.83 0-34.133-15.303-34.133-34.133v-728.121c0-18.83 15.303-34.19 34.133-34.19h728.178c18.83 0 34.133 15.36 34.133 34.19v316.644c0 31.403 25.486 56.889 56.889 56.889s56.889-25.486 56.889-56.889v-316.644c0-81.579-66.389-147.968-147.911-147.968h-728.178c-81.522 0-147.911 66.389-147.911 147.968v728.121c0 81.578 66.389 147.911 147.911 147.911h544.256zM869.353 771.982c21.788 22.528 57.799 23.211 80.441 1.308 22.585-21.845 23.154-57.856 1.308-80.441l-385.536-398.222c-10.695-11.093-25.429-17.351-40.846-17.351-15.701 0.057-30.492 6.428-41.188 17.636l-126.464 132.551c-21.732 22.756-20.821 58.766 1.877 80.441 22.756 21.732 58.709 20.821 80.441-1.877l85.618-89.771 344.348 355.726z" />
<glyph unicode="&#xe909;" glyph-name="back-arrow" d="M682.324 960.007c-21.357 0-42.569-9.289-57.051-27.282l-353.133-438.858c-21.797-27.136-21.504-65.901 0.805-92.672l365.714-438.853c25.819-31.019 71.973-35.183 103.058-9.37 31.013 25.822 35.182 71.979 9.289 102.989l-327.314 392.85 315.611 392.192c25.307 31.452 20.333 77.532-11.191 102.839-13.459 10.898-29.696 16.165-45.788 16.165z" />
<glyph unicode="&#xe90a;" glyph-name="groth-bar" d="M66.783 203.13h178.087c24.589 0 44.522-19.933 44.522-44.522v-178.087c0-24.589-19.933-44.522-44.522-44.522h-178.087c-24.589 0-44.522 19.933-44.522 44.522v178.087c0 24.589 19.933 44.522 44.522 44.522zM422.957 514.783h178.087c24.589 0 44.522-19.933 44.522-44.522v-489.739c0-24.589-19.933-44.522-44.522-44.522h-178.087c-24.589 0-44.522 19.933-44.522 44.522v489.739c0 24.589 19.933 44.522 44.522 44.522zM779.13 336.696h178.087c24.589 0 44.522-19.933 44.522-44.522v-311.652c0-24.589-19.933-44.522-44.522-44.522h-178.087c-24.589 0-44.522 19.933-44.522 44.522v311.652c0 24.589 19.933 44.522 44.522 44.522zM886.517 730.499l107.774-96.12c9.933-8.858 9.933-23.62 0-32.478s-26.482-8.858-36.414 0l-64 56.755v-209.953c0-12.796-11.402-22.964-25.747-22.964s-25.747 10.169-25.747 22.964v209.953l-63.635-56.753c-9.928-8.858-26.482-8.858-36.414 0-5.147 4.592-7.725 10.499-7.725 16.403s2.578 11.81 7.725 16.403l107.404 95.792c4.782 4.265 11.402 6.89 18.392 6.89s13.61-2.297 18.392-6.89l-0.004-0.002zM530.343 953.108l107.774-96.12c9.933-8.858 9.933-23.62 0-32.478s-26.482-8.858-36.414 0l-64 56.755v-209.954c0-12.794-11.402-22.963-25.747-22.963s-25.747 10.169-25.747 22.963v209.954l-63.633-56.753c-9.932-8.858-26.483-8.858-36.415 0-5.149 4.592-7.725 10.499-7.725 16.403s2.576 11.81 7.725 16.403l107.403 95.792c4.782 4.265 11.402 6.89 18.392 6.89s13.61-2.297 18.392-6.89l-0.004-0.002zM174.171 641.456l107.772-96.12c9.932-8.858 9.932-23.62 0-32.477-9.932-8.86-26.483-8.86-36.415 0l-64 56.754v-209.953c0-12.796-11.402-22.964-25.747-22.964s-25.746 10.169-25.746 22.964v209.953l-63.633-56.754c-9.932-8.855-26.483-8.855-36.415 0-5.149 4.594-7.726 10.5-7.726 16.404s2.576 11.81 7.726 16.403l107.404 95.792c4.783 4.265 11.402 6.89 18.391 6.89s13.609-2.297 18.391-6.89l-0.002-0.002z" />
<glyph unicode="&#xe90b;" glyph-name="user-group" horiz-adv-x="1396" d="M677.935 493.196c107.287 0 194.281 86.993 194.281 194.281s-86.993 194.281-194.327 194.281c-107.287 0-194.281-86.947-194.281-194.281 0-107.287 86.993-194.281 194.327-194.281zM677.888 576.977c-61.021 0-110.499 49.478-110.499 110.499s49.478 110.499 110.499 110.499c61.068 0 110.545-49.478 110.545-110.499s-49.478-110.499-110.499-110.499zM1046.388 219.369c0 119.668-94.115 218.252-213.876 226.863l-18.479 1.35-13.452-12.847c-31.697-30.255-74.985-48.873-122.694-48.873-47.663 0-90.95 18.618-122.647 48.873l-13.452 12.847-18.479-1.35c-119.761-8.611-213.876-107.241-213.876-226.863v-161.606h736.954v161.606zM962.607 219.369v-77.824c0 0-569.391 0-569.391 0s0 77.824 0 77.824c0 70.237 51.619 128.605 119.529 141.172 44.87-36.445 102.4-58.461 165.143-58.461 62.79 0 120.32 22.016 165.19 58.508 67.91-12.614 119.529-70.982 119.529-141.219zM1069.801 449.629c80.989 0 150.714 75.357 150.714 172.544s-69.725 172.497-150.714 172.497c-81.036 0-150.761-75.311-150.761-172.497s69.725-172.544 150.761-172.544zM1069.801 533.411c-39.331 0-66.979 41.612-66.979 88.762s27.648 88.716 66.979 88.716c39.284 0 66.932-41.565 66.932-88.716s-27.648-88.762-66.932-88.762zM1178.81 446.324h-1.722c-3.77 0-12.707 0.372-14.429 0-29.696-6.097-20.899-7.401-30.161-12.474-22.016-22.388-49.617-34.164-84.108-34.164v-83.782c52.271 0 95.139 16.337 130.42 46.639 48.407 0 88.576-36.352 88.576-82.479v-51.433c0 0-219.369 0-219.369 0v-83.782h303.151v135.215c0 91.322-76.567 166.307-172.358 166.307v-0.047zM286.022 449.629c80.989 0 150.761 75.357 150.761 172.544s-69.772 172.497-150.761 172.497c-80.989 0-150.761-75.311-150.761-172.497s69.772-172.544 150.761-172.544zM286.022 533.411c-39.284 0-66.979 41.612-66.979 88.762s27.695 88.716 66.979 88.716c39.331 0 66.979-41.565 66.979-88.716s-27.648-88.762-66.979-88.762zM176.593 446.324v0.047c-95.279 0-171.939-74.985-171.939-166.307v-135.215h303.151v83.782h-219.369c0 0 0 51.433 0 51.433 0 46.080 40.029 82.479 88.157 82.479 35.607-30.301 78.615-46.639 130.839-46.639v83.782c-34.63 0-62.464 11.916-84.852 34.351 0 0-6.423 12.288-33.187 12.335h-12.567l-0.233-0.047z" />
<glyph unicode="&#xe90c;" glyph-name="afternoon" d="M512.819 692.326c-133.53 0.307-241.664-106.906-241.869-239.616s107.315-240.845 239.616-241.254c133.837-0.307 242.074 107.008 242.278 240.23 0 132.813-107.213 240.435-240.026 240.64zM273.101 315.29c-9.421 15.565-29.082 20.89-45.773 12.288-4.71-2.458-9.216-5.222-13.824-7.885-25.6-14.746-51.302-29.286-76.698-44.339-14.541-8.602-20.275-24.371-15.565-39.834 4.506-14.643 17.818-24.371 34.202-24.269 4.608-0.41 9.83 0.922 14.541 3.584 31.027 17.715 62.259 35.123 92.877 53.658 16.179 9.83 20.070 30.618 10.24 46.797zM747.622 596.070c4.301-13.926 18.022-24.166 32.666-24.269 5.427-0.205 10.752 0.922 15.36 3.482 31.334 17.818 62.771 35.43 93.594 53.862 15.667 9.421 19.866 29.594 11.059 45.261-8.909 15.77-28.16 23.142-44.237 14.438-32.461-17.613-64.307-36.147-95.949-55.091-12.39-7.578-16.794-23.654-12.493-37.683zM519.27 722.739c19.251 0.102 34.202 15.36 34.304 35.43 0.102 16.794 0 33.69 0 50.483v51.405c-0.41 19.456-15.258 34.406-34.202 34.509-19.354 0.102-34.714-14.95-34.816-34.816-0.205-33.997-0.205-67.994 0-101.99 0.102-19.763 15.462-35.021 34.714-35.021zM519.373 173.67c-19.354 0.102-34.714-14.95-34.816-34.816-0.205-33.997-0.205-67.994 0-101.99 0.102-19.866 15.36-35.123 34.611-35.123 19.251 0.102 34.202 15.36 34.304 35.43 0.102 16.794 0 33.69 0 50.586v51.405c-0.307 19.354-15.155 34.406-34.099 34.509zM201.421 417.28c19.456 0.102 34.099 13.926 34.918 32.768 0.819 18.944-13.21 35.43-32.768 35.84-35.533 0.717-71.066 0.717-106.496 0-19.046-0.41-33.587-16.998-32.973-35.021 0.41-19.046 15.667-33.485 35.226-33.587 17.203-0.102 34.304 0 51.507 0 16.896 0 33.69-0.102 50.586 0zM927.13 485.888c-35.533 0.717-71.066 0.717-106.496 0-19.046-0.41-33.587-16.998-32.973-35.021 0.512-18.944 15.77-33.485 35.328-33.587 17.203-0.102 34.304 0 51.507 0 16.896 0 33.69-0.102 50.586 0 19.456 0.102 34.099 13.926 34.918 32.768 0.819 18.944-13.21 35.43-32.87 35.84zM670.72 678.195c12.083 0.205 22.323 4.71 28.467 15.053 18.432 30.925 36.762 62.054 54.17 93.491 8.806 15.872 2.15 35.635-13.414 44.646-15.667 9.114-36.045 5.53-45.466-9.933-18.944-31.027-37.376-62.362-54.579-94.31-11.981-22.323 5.53-48.845 30.822-48.947zM887.194 275.354c-29.491 17.306-59.187 34.509-88.986 51.2-17.715 9.933-37.99 4.301-47.616-12.39-9.933-17.203-4.198-37.069 14.234-47.718 28.57-16.589 57.242-33.075 85.914-49.459 5.939-3.379 12.186-6.144 18.842-5.632 15.77 0 29.389 10.138 33.587 24.474 4.506 15.36-1.434 30.925-15.974 39.526zM326.963 702.362c6.656-11.264 16.691-17.203 30.003-17.101 26.522 0.102 42.906 27.443 29.901 50.995-16.794 30.208-34.202 60.109-51.917 89.702-10.24 17.101-30.413 21.914-47.002 12.288-16.486-9.728-22.221-29.696-12.493-47.002 16.896-29.798 34.202-59.392 51.507-88.883zM137.421 626.688c29.286-17.101 58.778-33.894 88.166-50.893 5.53-3.174 11.366-4.813 15.872-4.608 17.306 0.102 30.822 10.138 35.021 24.576 4.301 15.155-1.331 30.822-15.36 39.014-29.696 17.51-59.597 34.816-89.702 51.712-17.613 9.933-38.195 4.096-47.616-12.595-9.728-17.203-4.301-36.762 13.619-47.206zM378.675 206.643c-17.306 10.24-37.786 4.506-48.64-14.029-16.691-28.57-33.178-57.242-49.766-85.811-3.277-5.734-5.734-11.674-5.325-17.92-0.102-16.179 9.728-29.491 24.371-33.792 15.565-4.608 31.13 1.126 39.731 15.565 17.203 28.979 33.894 58.163 50.688 87.347 10.445 18.227 5.734 38.707-11.059 48.64zM697.651 199.987c-10.957 18.637-31.334 24.371-48.538 14.234-16.794-9.933-21.606-30.413-11.162-48.64 8.294-14.643 16.896-29.082 25.395-43.725 8.602-14.848 16.794-29.798 25.805-44.442 8.602-14.029 24.883-19.661 40.141-14.848 14.029 4.403 23.552 17.818 23.552 34.406 0.41 5.325-1.946 11.366-5.222 17.101-16.691 28.672-33.178 57.344-49.971 85.914z" />
<glyph unicode="&#xe90d;" glyph-name="location" d="M688.615 653.060c0.109 46.045-18.368 90.242-51.369 122.874-33.001 32.623-77.82 50.996-124.578 51.068-46.754 0.072-91.632-18.162-124.742-50.685-33.103-32.522-51.721-76.665-51.759-122.719-0.037-46.045 18.509-90.215 51.564-122.792 33.056-32.57 77.903-50.875 124.661-50.875 46.663 0 91.429 18.224 124.465 50.684 33.036 32.457 51.645 76.491 51.758 122.443v0.002zM419.287 653.060c-0.111 24.337 9.611 47.715 27.025 64.991 17.404 17.275 41.079 27.024 65.797 27.096 24.714 0.064 48.446-9.538 65.96-26.713 17.517-17.166 27.376-40.497 27.415-64.836s-9.749-47.691-27.221-64.908c-17.461-17.221-41.161-26.906-65.879-26.906-24.622 0-48.234 9.601-65.683 26.712-17.451 17.104-27.303 40.316-27.415 64.562v0.002zM662.443 318.273l83.124 130.966 3.739 4.915 50.713 81.856 3.319 5.72c4.972 11.391 9.008 23.167 12.051 35.197 6.487 24.88 9.834 50.438 9.975 76.129 0 109.665-59.417 210.997-155.863 265.819-96.436 54.831-215.273 54.831-311.72 0-96.438-54.831-155.861-156.163-155.861-265.819 0.185-25.553 3.535-50.978 9.982-75.716 2.227-12.104 5.418-24.011 9.556-35.61l2.913-5.731 50.712-81.853 3.321-4.915 83.125-131.379c-155.442-28.238-255.6-99.049-255.6-184.588 0.826-112.139 175.39-197.265 406.486-197.265 231.092 0 405.652 85.126 405.652 197.674 0 85.546-100.589 156.351-255.601 184.588l-0.025 0.011zM346.137 501.622l-46.137 74.484c-2.727 6.79-4.954 13.768-6.652 20.875-4.824 18.455-7.338 37.42-7.477 56.476 0 80.421 43.567 154.739 114.298 194.944 70.731 40.214 157.866 40.214 228.596 0 70.73-40.205 114.296-114.525 114.296-194.944-0.102-19.194-2.616-38.297-7.475-56.886-1.688-6.981-3.916-13.813-6.652-20.466l-50.293-74.484-3.739-4.915-117.619-188.677-44.894-73.668-163.755 262.356-2.497 4.905zM512.388 17.86c-197.006 0-322.528 68.753-322.528 115.821 0 40.925 83.126 91.263 219.447 109.278l67.753-108.456c7.578-12.041 20.939-19.368 35.328-19.368s27.75 7.327 35.328 19.368l67.743 108.456c136.323-18.414 219.447-69.576 219.447-109.278 0.011-47.069-125.514-115.821-322.528-115.821h0.011z" />
<glyph unicode="&#xe90e;" glyph-name="bar-chart" d="M236.308 763.077c0 21.74-17.644 39.385-39.385 39.385h-78.769c-21.74 0-39.385-17.644-39.385-39.385v-551.385c0-21.74 17.644-39.385 39.385-39.385h78.769c21.74 0 39.385 17.644 39.385 39.385v551.385zM472.615 841.846c0 21.74-17.644 39.385-39.385 39.385h-78.769c-21.74 0-39.385-17.644-39.385-39.385v-630.154c0-21.74 17.644-39.385 39.385-39.385h78.769c21.74 0 39.385 17.644 39.385 39.385v630.154zM708.923 605.538c0 21.74-17.644 39.385-39.385 39.385h-78.769c-21.74 0-39.385-17.644-39.385-39.385v-393.846c0-21.74 17.644-39.385 39.385-39.385h78.769c21.74 0 39.385 17.644 39.385 39.385v393.846zM945.231 684.308c0 21.74-17.644 39.385-39.385 39.385h-78.769c-21.74 0-39.385-17.644-39.385-39.385v-472.615c0-21.74 17.644-39.385 39.385-39.385h78.769c21.74 0 39.385 17.644 39.385 39.385v472.615zM1024 54.154c0 21.74-17.644 39.385-39.385 39.385h-945.231c-21.74 0-39.385-17.644-39.385-39.385s17.644-39.385 39.385-39.385h945.231c21.74 0 39.385 17.644 39.385 39.385z" />
<glyph unicode="&#xe90f;" glyph-name="groth" d="M512 960c-282.809 0-512-229.191-512-512 0-282.811 229.191-512 512-512 282.811 0 512 229.189 512 512 0 282.809-229.189 512-512 512v0zM714.909 478.49l-156.646-162.951-119.852 80.947-136.676-156.646-66.236 57.827 187.139 214.469 124.061-82.004 91.461 95.675-69.387 44.156 206.062 69.383 13.667-208.164-73.593 47.309z" />
<glyph unicode="&#xe910;" glyph-name="minus" d="M960 384h-896c-35.328 0-64 28.608-64 64s28.672 64 64 64h896c35.392 0 64-28.608 64-64s-28.608-64-64-64z" />
<glyph unicode="&#xe911;" glyph-name="plus" d="M960 512h-384v384c0 35.392-28.672 64-64 64s-64-28.608-64-64v-384h-384c-35.328 0-64-28.608-64-64s28.672-64 64-64h384v-384c0-35.392 28.672-64 64-64s64 28.608 64 64v384h384c35.328 0 64 28.608 64 64s-28.672 64-64 64z" />
<glyph unicode="&#xe912;" glyph-name="settings" d="M255.587-64c-59.146 0-109.182 40.934-123.507 95.8h-100.111c-8.478-0.015-16.608 3.359-22.602 9.354-5.994 5.99-9.366 14.121-9.356 22.6 0 8.479 3.362 16.609 9.356 22.605 5.994 5.98 14.124 9.354 22.602 9.344h100.111c14.325 54.886 64.348 95.872 123.507 95.872s109.223-40.986 123.558-95.872h611.186c17.644 0 31.949-14.305 31.949-31.949 0.010-8.468-3.359-16.599-9.344-22.6-5.996-5.996-14.126-9.359-22.6-9.359h-611.19c-14.335-54.861-64.402-95.795-123.558-95.795h-0.001zM255.598-0.118h0.011c16.946 0 33.195 6.733 45.181 18.714 11.977 11.986 18.712 28.237 18.712 45.179 0 16.947-6.734 33.198-18.712 45.184-11.988 11.976-28.237 18.708-45.181 18.708s-33.196-6.733-45.181-18.708c-11.978-11.991-18.712-28.237-18.712-45.184s6.734-33.193 18.712-45.179c11.988-11.981 28.237-18.714 45.181-18.714h-0.011zM766.705 319.334c-59.156 0-109.189 40.986-123.505 95.872l-611.242-0.010c-8.478 0-16.608 3.359-22.602 9.354s-9.356 14.126-9.356 22.589c-0.011 8.48 3.362 16.62 9.356 22.615s14.124 9.356 22.602 9.356h611.242c14.326 54.864 64.358 95.797 123.505 95.797 59.151 0 109.235-40.932 123.571-95.797h100.050c8.479 0 16.604-3.373 22.6-9.367 5.985-5.994 9.354-14.124 9.344-22.604 0-8.463-3.359-16.594-9.354-22.579-5.996-5.996-14.111-9.364-22.589-9.364h-100.050c-14.336-54.886-64.415-95.872-123.571-95.872v0.010zM766.73 383.247l0.010-0.010c16.942 0 33.193 6.733 45.169 18.708 11.986 11.991 18.714 28.242 18.714 45.184 0 16.946-6.728 33.195-18.714 45.181-11.976 11.977-28.227 18.712-45.169 18.712-16.947 0-33.208-6.734-45.184-18.712-11.986-11.988-18.714-28.237-18.714-45.181 0-16.947 6.728-33.193 18.714-45.184 11.976-11.976 28.237-18.708 45.184-18.708l-0.010 0.010zM383.383 702.724c-59.146 0-109.234 40.943-123.569 95.808l-227.856-0.022c-8.478 0-16.608 3.373-22.602 9.367s-9.366 14.124-9.356 22.602c0 8.478 3.362 16.608 9.356 22.591 5.994 5.993 14.124 9.355 22.602 9.355h227.867c14.335 54.886 64.412 95.873 123.569 95.873s109.193-40.987 123.507-95.873h483.426c17.644 0 31.944-14.303 31.944-31.948 0.010-8.478-3.359-16.607-9.344-22.602-5.996-5.994-14.121-9.366-22.6-9.366h-483.425c-14.324-54.864-64.358-95.808-123.507-95.808l-0.011 0.022zM383.372 766.606l0.011-0.021c16.946 0 33.196 6.734 45.171 18.712 11.988 11.988 18.712 28.237 18.712 45.181 0 16.946-6.724 33.196-18.712 45.181-11.978 11.977-28.237 18.712-45.171 18.712-16.946 0-33.206-6.734-45.181-18.712-11.978-11.988-18.712-28.237-18.712-45.181 0-16.946 6.734-33.196 18.712-45.181 11.977-11.978 28.237-18.712 45.181-18.712l-0.011 0.021z" />
<glyph unicode="&#xe913;" glyph-name="info" d="M1014.691 452.655c0-279.766-227.579-507.345-507.345-507.345-279.765 0-507.345 227.579-507.345 507.345 0 279.765 227.581 507.345 507.345 507.345 279.766 0 507.345-227.581 507.345-507.345zM927.716 452.655c0 231.929-188.444 420.372-420.371 420.372-231.929 0-420.372-188.443-420.372-420.372 0-231.927 188.443-420.371 420.372-420.371 231.927-1.452 420.371 188.444 420.371 420.371zM507.341 526.582c-24.646 0-43.488-18.844-43.488-43.487v-221.78c0-24.646 18.843-43.487 43.488-43.487 24.641 0 43.483 18.842 43.483 43.487v221.78c0 24.643-18.842 43.487-43.483 43.487zM507.341 686.034c-11.599 0-23.194-4.349-30.441-13.046-8.699-7.248-13.048-18.844-13.048-30.441 0-2.899 0-5.798 1.449-8.697 0-2.899 1.451-5.798 2.899-8.697s2.9-4.348 4.347-7.248c1.452-2.899 2.9-4.349 5.8-7.248 15.946-15.946 44.935-15.946 60.881 0 1.448 1.449 4.347 4.348 5.8 7.248 1.448 2.899 2.9 4.349 4.347 7.248s1.448 5.799 2.9 8.697c0 2.899 1.448 5.798 1.448 8.697 0 11.596-4.347 23.193-13.047 30.441-10.147 8.697-21.741 13.046-33.336 13.046z" />
<glyph unicode="&#xe914;" glyph-name="marker" horiz-adv-x="819" d="M409.6 499.226c-42.342 0-76.8 34.458-76.8 76.8s34.458 76.8 76.8 76.8c42.342 0 76.8-34.458 76.8-76.8s-34.458-76.8-76.8-76.8zM409.6 755.226c-98.816 0-179.2-80.384-179.2-179.2s80.384-179.2 179.2-179.2c98.816 0 179.2 80.384 179.2 179.2s-80.384 179.2-179.2 179.2zM409.6 56.525c-85.76 81.101-307.2 308.787-307.2 497.869 0 167.168 137.779 303.206 307.2 303.206s307.2-136.038 307.2-303.206c0-189.082-221.44-416.768-307.2-497.869zM409.6 960c-225.843 0-409.6-181.914-409.6-405.606 0-280.32 360.909-592.845 376.269-606.003 9.626-8.243 21.453-12.39 33.331-12.39s23.706 4.147 33.331 12.39c15.36 13.158 376.269 325.683 376.269 606.003 0 223.693-183.757 405.606-409.6 405.606z" />
<glyph unicode="&#xe915;" glyph-name="globe" d="M762.307 124.5c-8.806 22.17-21.299 41.523-32.256 58.061-5.53 8.294-11.213 16.742-16.179 25.446-19.917 34.611-13.056 48.64 19.251 102.758l5.222 8.858c26.163 44.083 27.597 86.374 28.928 123.648 0.614 18.33 1.229 35.584 4.762 51.814 8.243 37.478 87.45 47.462 136.55 53.35 8.243-32.205 13.005-65.741 13.005-100.454 0-131.533-62.566-248.474-159.283-323.482zM151.643 253.473c32.563-8.294 67.84-14.029 103.731-14.029 55.296 0 111.77 13.517 160.614 51.763 87.861 68.71 87.861 156.57 87.861 227.226 0 45.67 0 85.043 19.046 120.013 10.24 18.739 32.051 31.744 57.293 46.848 15.462 9.267 31.488 18.79 46.848 30.874 32.922 25.754 57.395 58.88 72.55 95.539 71.68-37.12 131.072-94.618 170.291-165.018-73.114-10.138-176.896-34.099-197.837-129.69-5.53-25.293-6.4-49.101-7.066-70.144-1.075-29.85-1.894-53.453-14.694-75.059l-5.12-8.602c-33.126-55.45-70.605-118.323-20.070-206.234 6.093-10.65 12.902-20.89 19.61-31.078 17.613-26.419 26.266-41.011 26.317-55.347-48.896-20.685-102.656-32.154-159.027-32.154-155.496 0-290.971 87.142-360.347 215.091zM511.991 857.581c31.539 0 62.003-3.891 91.494-10.65-8.653-19.046-22.016-36.403-39.629-50.176-11.162-8.806-23.706-16.128-36.147-23.552-33.331-19.866-71.067-42.394-94.722-85.709-31.539-57.856-31.539-116.941-31.539-169.062 0-69.376-2.253-110.387-48.538-146.586-70.093-54.938-177.357-24.269-243.712 3.635-4.198 23.603-6.81 47.77-6.81 72.499 0 225.843 183.757 409.6 409.602 409.6zM511.991 959.982c-282.319 0-512.002-229.683-512.002-512 0-282.266 229.683-512 512.002-512 282.317 0 512 229.734 512 512 0 282.317-229.683 512-512 512z" />
<glyph unicode="&#xe916;" glyph-name="upload" horiz-adv-x="1138" d="M529.321 488.961c22.414 21.39 57.858 21.22 79.76-0.74l170.667-170.667c22.244-22.244 22.244-58.197 0-80.441-11.093-11.093-25.657-16.668-40.22-16.668s-29.127 5.575-40.22 16.668l-73.557 73.557v-317.781c0-31.46-25.486-56.889-56.891-56.889-31.403 0-56.889 25.429-56.889 56.889v321.081l-74.24-71.68c-22.585-21.902-58.596-21.163-80.441 1.422-21.845 22.642-21.22 58.596 1.365 80.441l170.667 164.808zM568.847 960.006c146.832 0 276.197-94.492 322.846-230.115 138.752-18.83 246.044-138.069 246.044-281.884 0-69.462-25.259-136.306-71.111-188.246-11.264-12.686-26.908-19.234-42.667-19.234-13.369 0-26.795 4.671-37.66 14.228-23.495 20.878-25.771 56.775-4.949 80.384 27.477 31.061 42.61 71.225 42.61 112.868 0 94.094-76.572 170.667-170.667 170.667h-5.689c-27.079 0-50.404 19.115-55.751 45.682-21.276 105.358-115.029 181.874-223.006 181.874-107.918 0-201.728-76.516-222.948-181.874-5.348-26.567-28.729-45.682-55.808-45.682h-5.689c-94.094 0-170.667-76.572-170.667-170.667 0-41.643 15.132-81.807 42.667-112.868 20.764-23.609 18.546-59.506-5.006-80.384-23.552-20.821-59.506-18.489-80.27 5.006-45.909 51.94-71.168 118.784-71.168 188.246 0 143.815 107.293 263.054 246.045 281.884 46.706 135.623 176.071 230.115 322.844 230.115z" />
<glyph unicode="&#xe917;" glyph-name="share" horiz-adv-x="1081" d="M910.222 49.778c-31.403 0-56.889 25.486-56.889 56.889s25.486 56.889 56.889 56.889c31.403 0 56.889-25.486 56.889-56.889s-25.486-56.889-56.889-56.889zM170.667 391.111c-31.403 0-56.889 25.486-56.889 56.889s25.486 56.889 56.889 56.889c31.403 0 56.889-25.486 56.889-56.889s-25.486-56.889-56.889-56.889zM910.222 846.222c31.403 0 56.889-25.486 56.889-56.889s-25.486-56.889-56.889-56.889c-31.403 0-56.889 25.486-56.889 56.889s25.486 56.889 56.889 56.889zM910.222 277.333c-46.478 0-88.576-18.773-119.41-48.981l-451.413 200.59c0.74 6.315 1.934 12.572 1.934 19.058s-1.195 12.743-1.934 19.058l451.413 200.59c30.834-30.208 72.932-48.981 119.41-48.981 94.094 0 170.667 76.572 170.667 170.667s-76.572 170.667-170.667 170.667c-94.094 0-170.667-76.572-170.667-170.667 0-6.485 1.195-12.743 1.934-19.058l-451.413-200.59c-30.834 30.208-72.932 48.981-119.41 48.981-94.094 0-170.667-76.572-170.667-170.667s76.572-170.667 170.667-170.667c46.478 0 88.576 18.773 119.41 48.981l451.413-200.59c-0.74-6.315-1.934-12.572-1.934-19.058 0-94.094 76.572-170.667 170.667-170.667s170.667 76.572 170.667 170.667c0 94.094-76.572 170.667-170.667 170.667z" />
<glyph unicode="&#xe918;" glyph-name="chat" d="M512.009 499.237c28.262 0 51.2-22.938 51.2-51.2s-22.938-51.2-51.2-51.2c-28.262 0-51.199 22.938-51.199 51.2s22.937 51.2 51.199 51.2zM716.809 499.237c28.262 0 51.2-22.938 51.2-51.2s-22.938-51.2-51.2-51.2c-28.262 0-51.2 22.938-51.2 51.2s22.938 51.2 51.2 51.2zM307.21 499.237c28.262 0 51.2-22.938 51.2-51.2s-22.938-51.2-51.2-51.2c-28.262 0-51.2 22.938-51.2 51.2s22.938 51.2 51.2 51.2zM916.41 381.738c-25.958-166.605-160.256-304.794-326.605-335.974-80.333-15.155-162.152-6.502-236.392 24.934-21.043 8.909-42.803 13.414-64.154 13.414-9.728 0-19.354-0.922-28.826-2.816l-143.974-28.774 28.826 144.23c6.042 29.952 2.355 62.003-10.598 92.672-31.437 74.24-40.038 156.006-24.934 236.391 31.181 166.349 169.318 300.646 335.974 326.605 132.61 20.634 262.299-21.146 355.893-114.739 93.645-93.645 135.475-223.386 114.79-355.943zM874.068 810.078c-116.992 116.941-278.784 169.114-444.111 143.565-208.742-32.563-381.798-200.704-420.864-408.934-18.842-100.25-7.987-202.343 31.283-295.168 4.966-11.827 6.502-22.835 4.557-32.717l-43.93-219.546c-3.379-16.794 1.894-34.15 14.029-46.234 9.677-9.728 22.733-15.002 36.198-15.002 3.328 0 6.656 0.307 10.035 0.973l219.29 43.878c12.595 2.406 24.781-1.126 32.922-4.506 92.928-39.27 195.023-50.074 295.17-31.283 208.282 39.066 376.422 212.122 408.986 420.864 25.702 165.223-26.573 327.117-143.565 444.109z" />
<glyph unicode="&#xe919;" glyph-name="history" horiz-adv-x="1170" d="M222.142 454.090c0 20.573 1.364 41.148 4.092 61.61-0.568-3.979-1.137-8.071-1.591-12.050 5.456 40.58 16.368 80.251 32.282 117.992-1.477-3.637-3.069-7.275-4.547-10.912 15.459 36.375 35.579 70.59 59.677 101.964-2.387-3.069-4.774-6.138-7.161-9.208 24.099 31.033 51.948 58.996 82.981 83.095-3.069-2.387-6.138-4.774-9.208-7.161 31.715 24.44 66.385 44.787 103.327 60.359-3.637-1.477-7.275-3.069-10.912-4.547 37.285 15.573 76.5 26.258 116.626 31.714-3.979-0.568-8.070-1.137-12.049-1.591 40.809 5.342 82.3 5.342 123.109 0-3.979 0.568-8.070 1.137-12.049 1.591 40.58-5.456 80.247-16.368 117.989-32.282-3.638 1.477-7.275 3.069-10.913 4.547 36.376-15.459 70.593-35.579 101.849-59.677-3.067 2.387-6.134 4.774-9.206 7.161 31.032-24.099 58.88-51.948 82.983-82.981-2.389 3.070-4.779 6.138-7.163 9.208 24.098-31.26 44.217-65.475 59.675-101.849-1.477 3.637-3.067 7.275-4.545 10.912 15.916-37.738 26.712-77.41 32.28-117.992-0.566 3.978-1.136 8.071-1.59 12.049 5.344-40.808 5.344-82.301 0-123.105 0.571 3.974 1.136 8.070 1.59 12.049-5.456-40.58-16.364-80.252-32.28-117.994 1.477 3.638 3.067 7.275 4.545 10.913-15.458-36.376-35.577-70.593-59.675-101.849 2.384 3.067 4.774 6.139 7.163 9.206-24.103-31.032-51.951-58.88-82.983-82.978 3.072 2.384 6.139 4.774 9.206 7.158-31.256-24.098-65.473-44.217-101.849-59.675 3.638 1.477 7.275 3.067 10.913 4.545-37.737-15.911-77.41-26.712-117.989-32.28 3.979 0.566 8.070 1.136 12.049 1.59-41.267-5.456-83.095-5.344-124.357 0.112 3.979-0.566 8.070-1.136 12.049-1.59-39.785 5.456-78.663 16.028-115.604 31.603 3.637-1.477 7.275-3.072 10.912-4.549-36.602 15.462-71.158 35.582-102.646 59.792 3.069-2.384 6.138-4.774 9.207-7.158-31.259 24.21-59.336 52.175-83.548 83.432 2.387-3.067 4.774-6.134 7.161-9.206-1.023 1.365-2.046 2.731-3.069 3.979-7.503 9.889-14.777 17.506-27.167 20.914-10.912 2.955-25.348 1.595-35.012-4.545-9.662-6.251-18.301-15.575-20.914-27.17-2.501-11.137-2.614-25.576 4.547-35.011 16.368-21.597 33.534-42.286 52.858-61.152 18.869-18.53 39.444-35.24 60.927-50.698 40.923-29.672 86.959-52.404 134.928-68.432 93.551-31.261 197.448-33.304 292.475-7.275 86.050 23.645 165.961 70.929 228.142 134.929 62.405 64.336 108.212 145.954 129.131 233.482 21.597 90.258 18.642 187.218-10.459 275.536-27.96 84.913-78.092 162.777-145.271 221.887-67.633 59.451-150.499 101.964-239.284 118.445-91.277 16.937-187.329 10.571-274.287-22.962-83.436-32.17-158.913-84.685-214.84-154.934-27.849-35.012-51.948-72.409-69.794-113.673-18.301-42.398-31.715-85.821-37.967-131.631-3.296-24.552-5.684-48.88-5.684-73.66 0-23.757 20.914-46.607 45.469-45.47 24.667 1.136 45.354 20.007 45.469 45.47l0.002 0.005zM380.146 621.413c-25.917-14.436-51.947-28.873-77.865-43.423-41.149-22.962-82.411-45.923-123.56-68.885-9.434-5.229-18.983-10.572-28.418-15.8 20.688-5.456 41.49-10.912 62.178-16.369-14.436 25.917-28.873 51.948-43.423 77.865-22.847 41.264-45.809 82.411-68.771 123.56-5.229 9.435-10.571 18.983-15.8 28.418-11.595 20.802-41.831 29.441-62.178 16.369-21.029-13.527-28.759-40.013-16.369-62.178 14.436-25.917 28.873-51.948 43.423-77.865 22.962-41.149 45.924-82.298 68.771-123.562 5.229-9.431 10.572-18.983 15.8-28.418 12.163-21.709 41.035-28.077 62.178-16.364 25.917 14.434 51.948 28.872 77.865 43.422 41.15 22.961 82.411 45.922 123.56 68.884 9.435 5.229 18.983 10.572 28.418 15.8 20.802 11.595 29.441 41.831 16.369 62.178-13.527 21.029-39.898 28.759-62.178 16.369v0zM591.555 719.626v-243.94c0-19.776-1.702-37.399 13.527-53.768 7.392-7.841 15.233-15.228 22.85-22.845 35.123-35.123 70.251-70.251 105.374-105.374 25.688-25.688 51.151-51.722 77.068-77.068 0.453-0.453 0.907-0.907 1.248-1.248 16.823-16.823 47.743-18.076 64.336 0 16.711 18.188 17.964 46.377 0 64.336-23.298 23.303-46.602 46.607-69.905 69.91-37.171 37.171-74.23 74.225-111.401 111.397-8.524 8.524-17.047 17.051-25.576 25.577 4.432-10.685 8.87-21.485 13.302-32.169v265.197c0 23.758-20.914 46.605-45.47 45.469-24.552-1.137-45.353-20.006-45.353-45.469v-0.003z" />
<glyph unicode="&#xe91a;" glyph-name="rght-arrow" horiz-adv-x="512" d="M85.676 960.007c21.357 0 42.569-9.289 57.051-27.282l353.133-438.858c21.797-27.136 21.504-65.901-0.805-92.672l-365.714-438.853c-25.819-31.019-71.973-35.183-103.058-9.37-31.013 25.822-35.182 71.979-9.289 102.989l327.314 392.85-315.611 392.192c-25.307 31.452-20.334 77.532 11.191 102.839 13.458 10.898 29.696 16.165 45.788 16.165z" />
<glyph unicode="&#xe91b;" glyph-name="morning" d="M955.085 222.413l-154.522 186.061c-7.168 8.602-19.763 10.24-28.774 3.686l-29.696-21.299c-10.035-7.168-24.064-4.403-30.515 6.144l-114.483 187.187c-9.011 14.643-30.618 13.21-37.581-2.458l-24.986-56.32c-7.168-16.179-29.901-16.998-38.298-1.331l-55.091 104.038c-7.578 14.336-27.75 15.258-36.557 1.741l-266.752-409.498c-9.216-14.131 0.922-32.87 17.818-32.87h783.155c17.92 0 27.75 21.094 16.282 34.918zM337.101 579.789c-18.125 25.19-47.002 41.984-80.486 42.701-56.73 1.229-103.629-43.418-104.755-99.738-1.126-48.64 32.256-90.010 77.414-101.376l107.827 158.413zM151.654 464.486c-3.891 6.758-12.186 9.114-19.354 5.632-2.048-1.024-3.994-2.15-5.939-3.277-11.059-6.042-22.016-11.981-32.973-18.227-6.246-3.584-8.806-10.24-6.963-16.794 1.843-6.246 7.373-10.445 14.336-10.547 1.946-0.307 4.198 0.41 6.144 1.434 13.312 7.27 26.726 14.438 39.834 21.914 7.168 4.096 8.909 13.005 4.915 19.866zM259.584 635.392c8.192-0.102 14.643 6.246 14.848 14.746 0.205 7.168 0.307 14.336 0.41 21.402l0.41 21.094v0.717c0 8.294-6.144 14.746-14.234 14.95-8.294 0.205-14.848-6.144-15.053-14.541l-0.922-43.315c0-8.294 6.349-14.95 14.541-15.053zM122.061 508.416c8.294-0.102 14.643 5.632 15.155 13.619 0.512 8.090-5.325 15.155-13.619 15.462-15.053 0.614-30.106 0.922-45.261 0.922-8.090 0-14.438-6.861-14.336-14.643 0.102-8.090 6.349-14.336 14.746-14.541l21.914-0.41c7.066-0.205 14.234-0.307 21.402-0.41zM323.584 615.219c5.12 0 9.523 1.843 12.186 6.144 8.090 13.005 16.179 26.010 23.859 39.219 3.891 6.656 1.126 15.155-5.325 19.046-6.554 3.994-15.258 2.56-19.456-3.891-8.294-13.005-16.384-26.214-24.064-39.629-5.222-9.216 2.048-20.685 12.8-20.89zM177.766 628.326c2.662-4.813 6.963-7.475 12.595-7.578 11.264-0.205 18.432 11.264 13.107 21.402-6.861 13.005-14.029 25.805-21.197 38.502-4.198 7.373-12.698 9.626-19.866 5.53-7.066-3.994-9.728-12.493-5.734-19.763 6.963-12.595 14.029-25.293 21.094-38.093zM96.666 597.914c12.288-7.578 24.678-14.848 36.966-22.323 2.355-1.434 4.813-2.15 6.758-2.15 7.373-0.102 13.21 3.994 15.053 10.138 1.946 6.451-0.307 13.107-6.144 16.691-12.493 7.68-24.986 15.258-37.683 22.63-7.373 4.403-16.179 2.048-20.378-4.915-4.198-7.168-2.048-15.565 5.427-20.070zM174.694 411.853c-7.373-11.981-14.643-24.064-21.914-36.045-1.434-2.458-2.56-4.915-2.458-7.578-0.205-6.861 3.891-12.595 10.035-14.541 6.554-2.048 13.312 0.205 16.998 6.246 7.578 12.186 14.848 24.371 22.323 36.659 4.71 7.68 2.765 16.384-4.301 20.787-7.066 4.608-15.872 2.253-20.685-5.53z" />
<glyph unicode="&#xe91c;" glyph-name="evening" d="M726.118 444.314c62.669-22.221 121.139 16.179 137.318 58.675-21.811-12.698-43.827-16.486-66.97-10.342-23.45 6.144-41.165 19.968-53.043 41.165-9.933 17.818-13.005 36.864-9.011 56.934 6.042 30.618 24.166 52.122 52.326 65.843-20.275 5.53-39.936 3.994-59.187-2.662-29.901-10.445-52.019-30.106-65.126-59.085-26.931-59.904 2.56-128.819 63.693-150.528zM707.994 706.867c0.922-0.819 1.434-2.048 1.229-3.277l-1.638-12.493c-0.41-3.174 2.97-5.325 5.632-3.789l10.957 6.349c1.024 0.614 2.458 0.717 3.482 0.205l11.469-5.325c2.867-1.331 6.042 1.126 5.325 4.198l-2.662 12.39c-0.307 1.229 0.102 2.458 1.024 3.379l8.704 9.216c2.15 2.355 0.717 6.042-2.458 6.349l-12.595 1.229c-1.229 0.102-2.355 0.922-2.97 1.946l-6.042 11.059c-1.536 2.765-5.53 2.56-6.758-0.307l-5.12-11.571c-0.512-1.126-1.536-1.946-2.765-2.15l-12.493-2.355c-3.072-0.614-4.198-4.506-1.843-6.554l9.523-8.499zM872.653 513.536c0.922-0.819 1.434-2.048 1.229-3.277l-1.638-12.493c-0.307-3.174 2.97-5.325 5.632-3.789l10.957 6.246c1.024 0.614 2.458 0.717 3.482 0.205l11.469-5.325c2.867-1.331 6.042 1.126 5.325 4.198l-2.662 12.39c-0.307 1.229 0.102 2.458 1.024 3.379l8.704 9.216c2.15 2.355 0.717 6.042-2.458 6.349l-12.595 1.229c-1.229 0.102-2.355 0.922-2.97 1.946l-6.042 11.059c-1.536 2.765-5.53 2.56-6.758-0.307l-5.12-11.571c-0.512-1.126-1.536-1.946-2.765-2.15l-12.493-2.355c-3.072-0.614-4.198-4.506-1.741-6.554l9.421-8.397zM781.107 583.066l6.246-5.632c0.614-0.512 0.922-1.331 0.819-2.253l-1.126-8.294c-0.307-2.048 1.946-3.584 3.789-2.458l7.27 4.198c0.717 0.41 1.638 0.41 2.355 0.102l7.578-3.584c1.843-0.922 3.891 0.819 3.482 2.765l-1.843 8.192c-0.205 0.819 0.102 1.638 0.614 2.253l5.734 6.042c1.434 1.536 0.512 3.994-1.638 4.198l-8.294 0.922c-0.819 0.102-1.536 0.512-1.946 1.229l-3.994 7.373c-1.024 1.741-3.686 1.741-4.506-0.205l-3.277-7.475c-0.41-0.717-1.024-1.331-1.843-1.434l-8.192-1.536c-1.946-0.41-2.662-2.97-1.229-4.403zM872.141 575.181c0.41-0.307 0.614-0.922 0.512-1.536l-0.717-5.632c-0.205-1.434 1.331-2.458 2.458-1.741l4.915 2.867c0.41 0.307 1.024 0.307 1.638 0.102l5.222-2.458c1.229-0.614 2.662 0.512 2.458 1.843l-1.229 5.53c-0.102 0.512 0 1.126 0.41 1.536l3.891 4.096c1.024 1.024 0.41 2.662-1.024 2.867l-5.632 0.512c-0.512 0.102-1.024 0.41-1.331 0.922l-2.765 5.018c-0.717 1.229-2.458 1.126-3.072-0.102l-2.355-5.222c-0.307-0.512-0.717-0.922-1.229-1.024l-5.632-1.126c-1.434-0.307-1.843-1.946-0.819-2.97l4.301-3.482zM805.888 684.442c0.512-0.41 0.819-1.126 0.717-1.843l-0.922-7.066c-0.205-1.741 1.638-2.97 3.174-2.048l6.042 3.584c0.614 0.41 1.331 0.41 1.946 0.102l6.451-3.072c1.638-0.717 3.277 0.614 2.97 2.355l-1.536 6.861c-0.205 0.717 0.102 1.434 0.512 1.843l4.813 5.222c1.126 1.229 0.41 3.379-1.331 3.584l-7.066 0.717c-0.717 0.102-1.331 0.41-1.638 1.024l-3.379 6.144c-0.819 1.536-3.072 1.434-3.789-0.205l-2.867-6.451c-0.307-0.614-0.922-1.024-1.536-1.229l-6.963-1.331c-1.741-0.41-2.355-2.458-1.024-3.686l5.427-4.506zM670.208 652.8c0.41-0.307 0.512-0.819 0.41-1.229l-0.614-4.813c-0.205-1.126 1.126-2.048 2.15-1.434l4.198 2.458c0.41 0.307 0.922 0.307 1.331 0.102l4.403-2.048c1.024-0.512 2.355 0.41 2.048 1.638l-1.024 4.71c-0.102 0.41 0 1.024 0.41 1.331l3.277 3.584c0.819 0.922 0.307 2.355-0.922 2.458l-4.813 0.512c-0.41 0.102-0.922 0.307-1.126 0.717l-2.355 4.301c-0.512 1.126-2.15 1.024-2.56-0.102l-1.946-4.506c-0.205-0.41-0.614-0.717-1.024-0.819l-4.71-0.922c-1.126-0.205-1.638-1.741-0.717-2.458l3.584-3.482zM954.573 193.536l-167.731 201.933c-7.68 9.318-21.299 11.059-31.13 3.994l-32.256-23.142c-10.957-7.782-26.112-4.71-33.178 6.758l-124.109 203.059c-9.626 15.872-33.28 14.336-40.755-2.662l-27.034-61.235c-7.782-17.613-32.461-18.432-41.472-1.434l-59.802 112.845c-8.192 15.462-30.106 16.486-39.731 1.741l-289.587-444.006c-10.035-15.36 1.024-35.635 19.354-35.635h849.715c19.558 0 30.208 22.733 17.715 37.786z" />
<glyph unicode="&#xe91d;" glyph-name="night" d="M546.202 162.611c-69.427 18.33-122.061 59.187-157.286 121.856-29.594 52.736-38.502 109.466-26.829 168.448 18.022 90.829 71.68 154.522 155.136 195.174-59.904 16.589-118.374 12.083-175.411-7.782-88.781-31.027-154.317-89.19-192.819-175.309-79.36-177.254 7.68-381.338 189.030-445.645 185.651-65.843 358.912 47.923 406.938 173.978-64.512-37.888-129.741-48.947-198.758-30.72zM284.365 796.979c2.765-2.56 4.096-6.144 3.686-9.728l-4.71-37.274c-1.126-9.216 8.806-15.872 16.794-11.162l32.461 18.944c3.277 1.843 7.066 2.048 10.445 0.41l33.997-16.077c8.397-3.994 17.715 3.379 15.77 12.595l-7.885 36.762c-0.819 3.584 0.307 7.373 2.765 10.035l25.805 27.238c6.349 6.861 2.253 17.92-7.066 18.944l-37.376 3.891c-3.686 0.41-6.861 2.56-8.704 5.837l-18.125 32.87c-4.506 8.192-16.384 7.578-20.173-0.922l-15.155-34.406c-1.536-3.379-4.608-5.837-8.192-6.554l-36.966-6.963c-9.114-1.741-12.39-13.21-5.427-19.456l28.058-24.986zM901.222 255.898c6.349 6.861 2.253 17.92-7.066 18.944l-37.376 3.891c-3.686 0.41-6.861 2.56-8.704 5.837l-18.022 32.973c-4.506 8.192-16.384 7.578-20.173-0.922l-15.053-34.509c-1.536-3.379-4.608-5.837-8.192-6.554l-36.966-6.963c-9.114-1.741-12.39-13.21-5.427-19.456l27.955-25.088c2.765-2.56 4.096-6.144 3.686-9.728l-4.71-37.274c-1.126-9.216 8.806-15.872 16.794-11.162l32.461 18.944c3.277 1.843 7.066 2.048 10.445 0.41l33.997-16.077c8.397-3.994 17.715 3.379 15.77 12.595l-7.885 36.762c-0.819 3.584 0.307 7.373 2.765 10.035l25.702 27.341zM501.043 430.387l18.534-16.691c1.843-1.638 2.765-3.994 2.458-6.554l-3.174-24.781c-0.819-6.144 5.837-10.445 11.162-7.475l21.606 12.595c2.15 1.229 4.71 1.331 6.861 0.307l22.63-10.65c5.53-2.56 11.776 2.253 10.445 8.294l-5.325 24.371c-0.512 2.458 0.205 4.915 1.843 6.758l17.101 18.227c4.198 4.506 1.434 11.878-4.71 12.595l-24.781 2.56c-2.458 0.307-4.608 1.741-5.837 3.891l-11.981 21.914c-2.97 5.427-10.854 5.12-13.312-0.512l-10.035-23.142c-1.024-2.253-3.072-3.891-5.427-4.301l-24.576-4.71c-5.939-1.024-7.987-8.602-3.482-12.698zM770.765 406.938c1.229-1.126 1.843-2.765 1.638-4.403l-2.15-16.794c-0.512-4.096 3.994-7.066 7.578-5.018l14.643 8.499c1.434 0.819 3.277 0.922 4.71 0.205l15.36-7.27c3.789-1.843 7.987 1.536 7.066 5.632l-3.584 16.589c-0.41 1.638 0.102 3.277 1.229 4.608l11.571 12.288c2.867 3.072 1.024 8.090-3.174 8.499l-16.896 1.741c-1.638 0.205-3.174 1.126-3.994 2.56l-8.192 14.848c-1.946 3.686-7.373 3.379-9.011-0.41l-6.861-15.462c-0.717-1.536-2.048-2.56-3.686-2.97l-16.589-3.174c-4.096-0.819-5.53-5.939-2.458-8.806l12.8-11.162zM574.259 730.624c1.536-1.331 2.355-3.379 2.048-5.427l-2.662-20.89c-0.614-5.222 4.915-8.909 9.421-6.246l18.227 10.547c1.843 1.126 3.994 1.126 5.837 0.307l19.046-9.011c4.71-2.253 9.933 1.843 8.909 6.963l-4.403 20.48c-0.41 2.048 0.205 4.096 1.638 5.632l14.438 15.36c3.584 3.789 1.229 10.035-3.994 10.547l-20.89 2.15c-2.048 0.205-3.891 1.434-4.813 3.277l-10.138 18.432c-2.56 4.608-9.114 4.301-11.264-0.41l-8.499-19.251c-0.819-1.843-2.56-3.277-4.608-3.686l-20.582-3.994c-5.12-1.024-6.861-7.373-3.072-10.854l15.36-13.926zM172.442 637.030c1.126-1.024 1.638-2.355 1.434-3.789l-1.843-14.336c-0.41-3.584 3.277-6.144 6.451-4.301l12.493 7.27c1.229 0.717 2.662 0.819 3.994 0.205l13.107-6.144c3.277-1.536 6.861 1.331 6.144 4.813l-3.072 14.029c-0.307 1.331 0.102 2.867 1.126 3.891l9.83 10.445c2.458 2.56 0.922 6.861-2.662 7.27l-14.336 1.434c-1.434 0.205-2.662 1.024-3.277 2.253l-6.861 12.595c-1.741 3.174-6.246 2.97-7.68-0.41l-5.837-13.21c-0.512-1.331-1.843-2.253-3.174-2.56l-14.131-2.662c-3.482-0.614-4.71-5.12-2.048-7.475l10.342-9.318z" />
<glyph unicode="&#xe91e;" glyph-name="bar-graph" d="M44.642 539.967c6.457 0 12.666 2.484 17.137 6.954l243.15 233.204 252.324-198.689c8.941-6.954 21.608-7.203 30.548 0l361.863 281.139-13.658-178.323c-0.992-13.66 9.19-25.582 22.848-26.575h1.984c12.915 0 23.846 9.935 24.838 22.848l18.131 234.703c0.992 13.66-9.19 25.582-22.848 26.574h-0.25l-252.576 18.13c-13.658 0.993-25.581-9.438-26.323-23.098-0.992-13.66 9.19-25.332 22.848-26.327l188.256-13.411-340.246-264.744-253.822 199.931c-9.686 7.699-23.596 6.954-32.535-1.49l-258.795-248.123c-9.934-9.437-10.183-25.332-0.745-35.020 4.719-4.967 11.176-7.699 17.882-7.699l-0.012 0.014zM999.155 44.998h-64.826v430.915c0 13.66-12.166 23.595-25.83 23.595h-157.952c-13.664 0-24.589-9.934-24.589-23.595v-430.915h-109.28v351.69c-0.248 13.908-11.176 25.582-25.332 25.829h-157.956c-13.908-0.497-25.085-11.921-25.332-25.829v-351.69h-109.279v245.875c0 13.658-10.928 24.838-24.588 24.838h-158.454c-13.66 0-25.83-11.181-25.83-24.838v-245.875h-65.070c-13.66 0-24.837-11.181-24.837-24.838 0-13.664 11.176-24.838 24.837-24.838h974.324c13.664 0 24.838 11.174 24.838 24.838 0 13.658-10.925 24.838-24.838 24.838h-0.006zM139.568 44.998v221.043h109.279v-221.043h-109.279zM457.471 44.998v327.846h109.279v-327.846h-109.279zM775.373 44.998v404.824h109.28v-404.824h-109.28z" />
<glyph unicode="&#xe94c;" glyph-name="map" d="M672 768l-320 128-352-128v-768l352 128 320-128 352 128v768l-352-128zM384 814.27l256-102.4v-630.138l-256 102.398v630.14zM64 723.172l256 93.090v-631.8l-256-93.088v631.798zM960 172.828l-256-93.092v631.8l256 93.090v-631.798z" />
<glyph unicode="&#xe960;" glyph-name="download" d="M512 384l256 256h-192v256h-128v-256h-192zM744.726 488.728l-71.74-71.742 260.080-96.986-421.066-157.018-421.066 157.018 260.080 96.986-71.742 71.742-279.272-104.728v-256l512-192 512 192v256z" />
</font>
</defs>
</svg>
